PathFileType	4	(X/Y/Z)	Walk7.trc
DataRate	CameraRate	NumFrames	NumMarkers	Units	OrigDataRate	OrigDataStartFrame	OrigNumFrames
200.000000	200.000000	7	59	mm	200.000000	460	590
Frame#	Times		LFHD		RFHD		CLAV		STRN		LASI		RASI		RACR1		RUA1		RElbow		RFA1		RWRR		RWRU		RCAR		LACR1		LUA1		LElbow		LFA1		LWRR		LCAR		RTH3		RTH2		RTB1		RTB2		RTB4		LTH1		LTH3		LTH2		LTH4		LLFC		LTB1		LTB2		LTB4		LMT1		LToe		LWRU		LMT5		LTB3		RTB3		LMFC		RMT1		RMMAL		RElbowM		RLFC		RToe		RBHD		RTH4		RTH1		RCAL		RBack		RMFC		RPSI		LLMAL		C7		LPSI		T10		LMMAL		LBHD		LCAL		LElbowM
			X1	Y1	Z1	X2	Y2	Z2	X3	Y3	Z3	X4	Y4	Z4	X5	Y5	Z5	X6	Y6	Z6	X7	Y7	Z7	X8	Y8	Z8	X9	Y9	Z9	X10	Y10	Z10	X11	Y11	Z11	X12	Y12	Z12	X13	Y13	Z13	X14	Y14	Z14	X15	Y15	Z15	X16	Y16	Z16	X17	Y17	Z17	X18	Y18	Z18	X19	Y19	Z19	X20	Y20	Z20	X21	Y21	Z21	X22	Y22	Z22	X23	Y23	Z23	X24	Y24	Z24	X25	Y25	Z25	X26	Y26	Z26	X27	Y27	Z27	X28	Y28	Z28	X29	Y29	Z29	X30	Y30	Z30	X31	Y31	Z31	X32	Y32	Z32	X33	Y33	Z33	X34	Y34	Z34	X35	Y35	Z35	X36	Y36	Z36	X37	Y37	Z37	X38	Y38	Z38	X39	Y39	Z39	X40	Y40	Z40	X41	Y41	Z41	X42	Y42	Z42	X43	Y43	Z43	X44	Y44	Z44	X45	Y45	Z45	X46	Y46	Z46	X47	Y47	Z47	X48	Y48	Z48	X49	Y49	Z49	X50	Y50	Z50	X51	Y51	Z51	X52	Y52	Z52	X53	Y53	Z53	X54	Y54	Z54	X55	Y55	Z55	X56	Y56	Z56	X57	Y57	Z57	X58	Y58	Z58	X59	Y59	Z59

460	2.3	852.82	1650.5	81.454	849.41	1644.2	-17.303	846.58	1391.8	49.9	912.01	1234	47.371	800.89	967.77	-129.01	793.57	981.7	242.14	728.61	1474.4	220.69	730.53	1307.4	342.62	776.61	1171.9	403.76	868.37	1052.8	407.61	938.08	961.34	330.25	933.64	959.52	412.41	999	900.06	374.34	730.7	1463.8	-131.37	656.87	1305.5	-217.96	600.51	1149.7	-263.55	590.09	1009.3	-275.89	619.22	877.63	-221.03	600.59	788.03	-248.92	652.52	600.07	227.94	717.51	682.3	229.83	643.42	356.87	133.16	591.87	277.46	180.07	609.61	277.32	121.35	796.34	751	-154.34	866.05	595.92	-127.51	881.1	699.94	-122.15	830.54	674.19	-143.09	876.54	515.16	-122.8	991.29	436.22	-76.794	990.38	337.79	-111.96	1024.4	359.19	-64.019	1202.1	132.37	-58.102	1234.7	154.42	-105.2	564.03	870.59	-272.14	1150.8	81.835	-118.1	1051.3	276.83	-52.027	577.5	198.34	109.48	905.89	515.87	32.681	617	26.509	79.687	497	84.029	43.634	749.08	1085.4	306	616.05	485.74	213.19	665.51	28.45	115	696.35	1571.6	-20.572	660.28	684.15	243.39	666.49	769.43	259.65	397.45	56.8	80.64	590.47	1348.6	164.93	610.26	496.59	58.336	539.8	1029.8	74.049	1039.8	92.979	-45.423	653.82	1473.8	51.725	555.79	1022.7	-7.5067	589.17	1158	38.76	1073	118.74	32.703	716.3	1584.9	127.15	1021.6	44.94	18.697	536.86	1109.5	-163.16
461	2.305	859.2	1649.2	80.346	855.78	1642.8	-18.398	853.08	1390.4	49.349	918.46	1232.6	47.132	807.6	965.97	-129.03	799.08	980.53	242.45	734.94	1473.3	219.83	737.25	1306.5	341.98	783.9	1171.3	403.28	876.28	1052.8	406.81	946.2	961.71	329.22	942.1	959.88	411.41	1007.7	900.83	373.1	737.48	1462.4	-132.1	663.1	1304.4	-218.54	606.06	1148.8	-263.88	595.1	1008.4	-276.01	623.75	876.69	-220.96	604.63	787.05	-248.58	655.97	599.37	227.88	721.48	681.17	229.88	645.49	356.07	133.14	593.27	277.04	179.97	611.17	276.74	121.3	803.31	749.68	-154.04	873.38	594.89	-126.67	888.19	698.97	-121.64	837.72	673.02	-142.51	884.14	514.07	-121.96	999.42	435.89	-76.034	999.07	337.36	-110.93	1033.1	359.11	-63.147	1212.4	133.81	-56.787	1244.9	156.04	-103.91	568.48	869.76	-271.99	1161.6	82.534	-116.67	1060.6	276.97	-50.996	578.56	197.97	109.42	913.5	515.3	33.448	617.05	26.519	79.733	497.37	84.2	43.47	756.23	1084.6	305.76	618.77	485.23	213.03	665.66	28.381	115.15	702.76	1570.1	-21.566	664.25	683.39	243.33	670.98	768.63	259.55	397.62	57.353	80.346	596.88	1347.3	164	613.53	496.08	58.145	546.07	1028.7	73.184	1050.4	92.998	-43.886	660.33	1472.5	50.86	562.3	1021.4	-8.3041	595.55	1156.7	37.929	1083.5	119.17	34.117	722.74	1583.7	126.18	1032.7	44.868	20.348	542.46	1108.9	-163.38
462	2.31	865.61	1648	79.199	862.18	1641.4	-19.532	859.61	1389	48.755	924.95	1231.1	46.861	814.36	964.2	-129.05	804.67	979.39	242.71	741.33	1472.2	218.93	743.99	1305.7	341.31	791.19	1170.7	402.77	884.15	1052.8	405.98	954.26	962.05	328.16	950.48	960.22	410.38	1016.3	901.55	371.82	744.27	1461.1	-132.86	669.39	1303.3	-219.15	611.68	1147.9	-264.23	600.2	1007.4	-276.17	628.39	875.71	-220.91	608.82	786.05	-248.28	659.44	598.66	227.8	725.48	680.05	229.92	647.58	355.29	133.12	594.68	276.65	179.86	612.74	276.18	121.25	810.38	748.44	-153.77	880.85	593.94	-125.91	895.4	698.09	-121.15	845.01	671.94	-141.98	891.86	513.05	-121.19	1007.5	435.46	-75.283	1007.6	336.82	-109.89	1041.6	358.87	-62.253	1222.1	134.78	-55.385	1254.4	157.15	-102.52	573.05	868.9	-271.87	1171.6	82.9	-115.16	1069.5	276.9	-49.92	579.63	197.62	109.35	921.29	514.81	34.148	617.09	26.529	79.779	497.75	84.402	43.31	763.35	1083.8	305.47	621.52	484.73	212.85	665.81	28.312	115.31	709.2	1568.6	-22.599	668.26	682.64	243.26	675.51	767.84	259.43	397.8	57.954	80.057	603.33	1346.1	163.06	616.84	495.58	57.939	552.37	1027.6	72.338	1060.3	92.857	-42.307	666.88	1471.2	49.964	568.86	1020.1	-9.0815	601.97	1155.3	37.119	1093.4	119.37	35.594	729.21	1582.5	125.16	1043	44.676	22.031	548.12	1108.3	-163.64
463	2.315	872.04	1646.7	78.017	868.6	1640	-20.704	866.18	1387.6	48.115	931.46	1229.7	46.555	821.16	962.44	-129.08	810.34	978.27	242.9	747.75	1471.2	217.98	750.75	1304.9	340.61	798.46	1170.1	402.22	891.97	1052.7	405.12	962.25	962.37	327.07	958.78	960.53	409.31	1024.7	902.23	370.5	751.07	1459.7	-133.66	675.71	1302.2	-219.79	617.38	1146.9	-264.62	605.4	1006.4	-276.36	633.12	874.71	-220.9	613.14	785.01	-248.03	662.95	597.97	227.72	729.51	678.93	229.96	649.69	354.53	133.1	596.1	276.29	179.75	614.34	275.64	121.19	817.56	747.28	-153.53	888.44	593.07	-125.22	902.71	697.28	-120.71	852.43	670.93	-141.5	899.69	512.1	-120.49	1015.6	434.92	-74.53	1015.9	336.18	-108.85	1049.9	358.47	-61.326	1231.1	135.26	-53.885	1263.3	157.71	-101.03	577.74	867.99	-271.8	1180.9	82.926	-113.57	1078.1	276.61	-48.791	580.71	197.3	109.29	929.25	514.4	34.784	617.14	26.541	79.824	498.14	84.636	43.153	770.45	1083	305.16	624.3	484.25	212.66	665.96	28.242	115.48	715.66	1567	-23.67	672.29	681.88	243.17	680.07	767.04	259.3	397.98	58.61	79.775	609.82	1344.9	162.1	620.19	495.08	57.72	558.72	1026.4	71.514	1069.5	92.542	-40.691	673.45	1469.9	49.036	575.45	1018.8	-9.8349	608.43	1154	36.332	1102.5	119.33	37.134	735.69	1581.2	124.09	1052.4	44.349	23.737	553.84	1107.6	-163.95
464	2.32	878.49	1645.5	76.798	875.04	1638.5	-21.914	872.77	1386.2	47.427	938.01	1228.2	46.213	828.01	960.71	-129.13	816.09	977.17	243.03	754.23	1470.2	216.99	757.55	1304.1	339.88	805.73	1169.6	401.64	899.73	1052.7	404.23	970.16	962.66	325.94	967	960.8	408.21	1033.1	902.86	369.15	757.88	1458.3	-134.5	682.08	1301	-220.46	623.15	1145.9	-265.04	610.7	1005.4	-276.59	637.96	873.67	-220.9	617.62	783.95	-247.82	666.5	597.28	227.63	733.57	677.82	229.99	651.83	353.77	133.08	597.56	275.96	179.64	615.96	275.11	121.14	824.85	746.18	-153.32	896.16	592.26	-124.6	910.13	696.53	-120.29	859.95	669.98	-141.06	907.63	511.22	-119.85	1023.7	434.26	-73.766	1024	335.43	-107.79	1058.1	357.89	-60.359	1239.4	135.25	-52.28	1271.5	157.75	-99.424	582.56	867.05	-271.76	1189.4	82.607	-111.89	1086.4	276.11	-47.605	581.81	197	109.22	937.35	514.05	35.36	617.19	26.556	79.869	498.54	84.907	43.002	777.52	1082.3	304.81	627.12	483.79	212.46	666.1	28.168	115.65	722.16	1565.5	-24.782	676.37	681.14	243.07	684.66	766.24	259.17	398.16	59.328	79.5	616.34	1343.7	161.14	623.58	494.58	57.488	565.11	1025.3	70.711	1077.9	92.046	-39.045	680.05	1468.6	48.075	582.09	1017.4	-10.561	614.92	1152.6	35.571	1110.9	119.02	38.735	742.19	1579.9	122.98	1061	43.878	25.453	559.62	1106.9	-164.3
465	2.325	884.97	1644.2	75.545	881.52	1637.1	-23.159	879.4	1384.8	46.688	944.58	1226.8	45.832	834.92	959.01	-129.19	821.93	976.09	243.08	760.75	1469.2	215.96	764.37	1303.3	339.12	812.98	1169	401.03	907.45	1052.6	403.32	977.99	962.92	324.79	975.13	961.05	407.08	1041.4	903.45	367.77	764.7	1456.9	-135.38	688.49	1299.8	-221.16	629	1144.9	-265.49	616.1	1004.4	-276.86	642.9	872.59	-220.94	622.25	782.86	-247.66	670.1	596.61	227.53	737.67	676.71	230.01	654	353.03	133.06	599.04	275.66	179.53	617.61	274.6	121.09	832.26	745.15	-153.14	903.97	591.5	-124.05	917.66	695.84	-119.91	867.58	669.1	-140.67	915.64	510.4	-119.26	1031.7	433.49	-72.981	1031.9	334.57	-106.72	1066	357.14	-59.346	1247.1	134.75	-50.563	1279.2	157.25	-97.691	587.51	866.06	-271.77	1197.2	81.945	-110.14	1094.3	275.39	-46.359	582.93	196.72	109.16	945.58	513.75	35.88	617.25	26.572	79.915	498.95	85.219	42.855	784.55	1081.5	304.42	629.98	483.34	212.24	666.24	28.091	115.83	728.69	1564	-25.933	680.48	680.4	242.96	689.3	765.45	259.03	398.35	60.114	79.231	622.9	1342.6	160.17	627.03	494.08	57.247	571.54	1024.2	69.929	1085.6	91.368	-37.379	686.66	1467.3	47.078	588.77	1016	-11.258	621.47	1151.2	34.837	1118.6	118.46	40.391	748.72	1578.7	121.83	1068.7	43.26	27.168	565.46	1106.1	-164.69
466	2.33	891.46	1643	74.257	888.02	1635.7	-24.441	886.06	1383.5	45.898	951.2	1225.4	45.411	841.88	957.35	-129.27	827.86	975.03	243.05	767.31	1468.2	214.88	771.23	1302.6	338.33	820.22	1168.5	400.38	915.11	1052.5	402.38	985.75	963.16	323.62	983.18	961.26	405.92	1049.6	903.99	366.36	771.53	1455.4	-136.3	694.94	1298.5	-221.89	634.92	1143.8	-265.98	621.59	1003.3	-277.16	647.94	871.47	-221	627.03	781.73	-247.54	673.75	595.95	227.42	741.82	675.61	230.03	656.23	352.31	133.03	600.57	275.39	179.42	619.29	274.12	121.04	839.76	744.18	-152.99	911.87	590.8	-123.56	925.28	695.19	-119.58	875.3	668.27	-140.31	923.73	509.62	-118.74	1039.6	432.61	-72.171	1039.7	333.61	-105.63	1073.8	356.23	-58.285	1254.1	133.77	-48.734	1286.4	156.23	-95.824	592.58	865.03	-271.82	1204.2	80.949	-108.3	1101.8	274.45	-45.055	584.07	196.48	109.1	953.89	513.47	36.346	617.31	26.591	79.962	499.39	85.575	42.716	791.55	1080.8	304.01	632.9	482.9	212.02	666.37	28.011	116.01	735.24	1562.5	-27.125	684.65	679.67	242.84	693.98	764.66	258.88	398.56	60.975	78.968	629.5	1341.4	159.19	630.56	493.58	56.997	578.01	1023	69.169	1092.7	90.511	-35.705	693.3	1466	46.044	595.5	1014.6	-11.925	628.05	1149.9	34.13	1125.6	117.63	42.093	755.28	1577.4	120.64	1075.7	42.501	28.865	571.36	1105.3	-165.14
